# xmcd CD database file
#
# Track frame offsets:
#	150
#	20552
#	39306
#	57416
#	77440
#	97755
#	115122
#	132954
#	153973
#	173898
#
# Disc length: 2612 seconds
#
# Revision: 0
# Processed by: cddbd v1.5.1PL0 Copyright (c) Steve Scherf et al.
# Submitted via: CDex 1.51
#
DISCID=6e0a320a
DTITLE=ZARD - 揺れる想い
DYEAR=1993
DGENRE=JPop
TTITLE0=揺れる想い
TTITLE1=SEASON
TTITLE2=君がいない(B-version)
TTITLE3=IN MY ARMS TONIGHT
TTITLE4=あなたを好きだけど
TTITLE5=負けないで
TTITLE6=Listen to me
TTITLE7=You and me (and…)
TTITLE8=I wnat you
TTITLE9=二人の夏
EXTD=YEAR: 1993
EXTT0=
EXTT1=
EXTT2=
EXTT3=
EXTT4=
EXTT5=
EXTT6=
EXTT7=
EXTT8=
EXTT9=
PLAYORDER=
